<svg width="40" height="40" viewBox="0 0 40 40" fill="none" xmlns="http://www.w3.org/2000/svg">
<path d="M36.8 20.8V36.8C36.8 37.6487 36.4629 38.4626 35.8627 39.0627C35.2626 39.6629 34.4487 40 33.6 40H3.2C2.35131 40 1.53737 39.6629 0.937258 39.0627C0.337142 38.4626 0 37.6487 0 36.8V6.4C0 5.55131 0.337142 4.73737 0.937258 4.13726C1.53737 3.53714 2.35131 3.2 3.2 3.2H19.2C19.6243 3.2 20.0313 3.36857 20.3314 3.66863C20.6314 3.96869 20.8 4.37565 20.8 4.8C20.8 5.22435 20.6314 5.63131 20.3314 5.93137C20.0313 6.23143 19.6243 6.4 19.2 6.4H3.2V36.8H33.6V20.8C33.6 20.3757 33.7686 19.9687 34.0686 19.6686C34.3687 19.3686 34.7757 19.2 35.2 19.2C35.6243 19.2 36.0313 19.3686 36.3314 19.6686C36.6314 19.9687 36.8 20.3757 36.8 20.8ZM32.8 0C31.376 0 29.9839 0.422273 28.7999 1.21342C27.6159 2.00457 26.693 3.12905 26.1481 4.44468C25.6031 5.76031 25.4605 7.20799 25.7383 8.60465C26.0162 10.0013 26.7019 11.2842 27.7088 12.2912C28.7158 13.2981 29.9987 13.9838 31.3953 14.2617C32.792 14.5395 34.2397 14.3969 35.5553 13.8519C36.8709 13.307 37.9954 12.3841 38.7866 11.2001C39.5777 10.0161 40 8.62403 40 7.2C40 5.29044 39.2414 3.45909 37.8912 2.10883C36.5409 0.758569 34.7096 0 32.8 0Z" fill="#023047"/>
</svg>
