<svg width="27" height="25" viewBox="0 0 27 25" fill="none" xmlns="http://www.w3.org/2000/svg">
<g clip-path="url(#clip0_438_3453)">
<path d="M23.9519 19.6005L23.704 19.3947C23.0009 18.8047 22.3853 18.1284 21.8738 17.3839C21.3149 16.3564 20.9802 15.234 20.8894 14.0829V10.6926C20.8943 8.88472 20.1975 7.13736 18.93 5.77887C17.6625 4.42038 15.9115 3.54427 14.0061 3.31515V2.42985C14.0061 2.18687 13.9035 1.95383 13.7209 1.78202C13.5384 1.6102 13.2908 1.51367 13.0326 1.51367C12.7744 1.51367 12.5268 1.6102 12.3443 1.78202C12.1617 1.95383 12.0592 2.18687 12.0592 2.42985V3.32888C10.1708 3.57452 8.441 4.45592 7.19015 5.80985C5.9393 7.16377 5.25216 8.89847 5.25601 10.6926V14.0829C5.16527 15.234 4.83056 16.3564 4.27163 17.3839C3.76914 18.1267 3.16343 18.8029 2.47057 19.3947L2.22266 19.6005V21.5358H23.9519V19.6005Z" fill="#023047"/>
<path d="M11.1719 22.2559C11.2358 22.6909 11.4648 23.0894 11.8167 23.3779C12.1685 23.6664 12.6193 23.8253 13.0859 23.8253C13.5526 23.8253 14.0034 23.6664 14.3552 23.3779C14.707 23.0894 14.9361 22.6909 15 22.2559H11.1719Z" fill="#023047"/>
</g>
<defs>
<clipPath id="clip0_438_3453">
<rect width="26.2502" height="24.706" fill="white" transform="translate(0 0.294922)"/>
</clipPath>
</defs>
</svg>
