<svg width="40" height="40" viewBox="0 0 40 40" fill="none" xmlns="http://www.w3.org/2000/svg">
<g clip-path="url(#clip0_285_4929)">
<path fill-rule="evenodd" clip-rule="evenodd" d="M20.5415 0.359375C30.4928 0.359375 38.5595 8.42604 38.5595 18.3774C38.5595 28.3287 30.4928 36.3954 20.5415 36.3954C10.5901 36.3954 2.52344 28.3287 2.52344 18.3774C2.52344 8.42604 10.5901 0.359375 20.5415 0.359375ZM22.3433 4.07469V5.76478C22.3427 6.22402 22.1669 6.66574 21.8516 6.99968C21.5364 7.33362 21.1055 7.53457 20.647 7.56149C20.1886 7.5884 19.7372 7.43924 19.385 7.14448C19.0328 6.84973 18.8065 6.43162 18.7523 5.97559L18.7397 5.76478V4.07469C15.6437 4.46564 12.7581 5.85008 10.5158 8.02025C8.27355 10.1904 6.79554 13.0292 6.30362 16.1107L6.23875 16.5756H7.92884C8.38808 16.5761 8.8298 16.7519 9.16374 17.0672C9.49768 17.3825 9.69863 17.8133 9.72555 18.2718C9.75246 18.7303 9.6033 19.1817 9.30855 19.5338C9.01379 19.886 8.59568 20.1123 8.13965 20.1666L7.92884 20.1792H6.23875C6.67413 23.6229 8.33738 26.7938 10.923 29.1096C13.5086 31.4255 16.843 32.7306 20.3136 32.7854C23.7843 32.8402 27.1581 31.6409 29.8156 29.4078C32.473 27.1748 34.2355 24.0579 34.7793 20.6296L34.8442 20.1792H33.1541C32.6948 20.1787 32.2531 20.0028 31.9192 19.6876C31.5852 19.3723 31.3843 18.9414 31.3574 18.483C31.3304 18.0245 31.4796 17.5731 31.7744 17.2209C32.0691 16.8688 32.4872 16.6424 32.9433 16.5882L33.1541 16.5756H34.8442C34.4509 13.4337 33.0316 10.5094 30.8063 8.25667L26.4388 16.8314L26.1595 17.3612L25.6009 18.4603C24.9342 19.7576 24.2099 21.0801 23.2171 22.0729C21.4658 23.8224 18.5541 24.035 16.7198 22.199C14.8838 20.3648 15.0964 17.4531 16.846 15.7017C17.6964 14.8513 18.7883 14.1972 19.9018 13.608L21.5577 12.7594L23.0874 11.9594L30.6604 8.11253C28.4081 5.88765 25.4846 4.46829 22.3433 4.07469ZM22.6351 16.2837L22.2568 16.4855L21.8676 16.6891C21.1433 17.0657 20.3865 17.4567 19.7559 17.9468L19.3937 18.2531L19.2622 18.4044C18.9144 18.8729 19.0189 19.4026 19.2676 19.6513C19.5162 19.8999 20.046 20.0044 20.5144 19.6567L20.6694 19.5233L20.9721 19.163C21.3631 18.6585 21.6928 18.0729 22.0009 17.4873L22.2297 17.0513C22.3643 16.787 22.4994 16.5311 22.6351 16.2837Z" fill="#023047"/>
</g>
<defs>
<clipPath id="clip0_285_4929">
<rect width="40" height="40" fill="white"/>
</clipPath>
</defs>
</svg>
