<svg width="40" height="40" viewBox="0 0 40 40" fill="none" xmlns="http://www.w3.org/2000/svg">
<path d="M8.88906 29.4735C8.88906 30.6314 7.88904 31.5788 6.66679 31.5788C5.44455 31.5788 4.44453 30.6314 4.44453 29.4735C4.44453 28.3156 5.44455 27.3682 6.66679 27.3682C7.88904 27.3682 8.88906 28.3156 8.88906 29.4735ZM13.3336 29.4735C12.1113 29.4735 11.1113 30.4209 11.1113 31.5788C11.1113 32.7367 12.1113 33.6841 13.3336 33.6841C14.5558 33.6841 15.5559 32.7367 15.5559 31.5788C15.5559 30.4209 14.5558 29.4735 13.3336 29.4735ZM2.22227 33.6841C1.00002 33.6841 0 34.6315 0 35.7894C0 36.9473 1.00002 37.8947 2.22227 37.8947C3.44451 37.8947 4.44453 36.9473 4.44453 35.7894C4.44453 34.6315 3.44451 33.6841 2.22227 33.6841ZM8.88906 35.7894C7.66681 35.7894 6.66679 36.7368 6.66679 37.8947C6.66679 39.0526 7.66681 40 8.88906 40C10.1113 40 11.1113 39.0526 11.1113 37.8947C11.1113 36.7368 10.1113 35.7894 8.88906 35.7894ZM27.4005 1.51509L15.1114 16.1048L22.9782 23.5576L38.4007 11.9363C40.4008 10.3363 40.5563 7.45204 38.6896 5.68358L34.0007 1.2414C32.1339 -0.527056 29.0894 -0.379684 27.4005 1.51509ZM11.978 22.1049L16.667 26.5261C17.5559 27.3682 18.9781 27.3682 19.8448 26.5261L21.4004 25.0524L13.5558 17.5996L11.978 19.0944C11.5613 19.496 11.3279 20.0365 11.3279 20.5996C11.3279 21.1628 11.5613 21.7033 11.978 22.1049Z" fill="#023047"/>
</svg>
