<svg width="160" height="36" viewBox="0 0 160 36" fill="none" xmlns="http://www.w3.org/2000/svg">
<path d="M10.5817 21.0025L10.581 21.0024C8.00032 20.6613 5.42719 20.2841 2.85895 19.8997L2.85847 19.8996C2.34953 19.8229 1.8621 19.6388 1.51661 19.2978C1.15072 18.9366 0.99122 18.4442 1.08504 17.8832C1.18777 17.2601 1.54076 16.8384 2.03629 16.6208C2.49715 16.4184 3.03977 16.4091 3.54252 16.4787C4.37005 16.5931 5.18012 16.7194 5.98507 16.8449C7.13031 17.0235 8.26522 17.2005 9.42536 17.3393L9.42546 17.3393C10.5047 17.4686 11.5804 17.5428 12.6711 17.6182C13.2389 17.6574 13.8108 17.6968 14.3894 17.7445L14.3896 17.7445C14.5135 17.7548 14.5772 17.7411 14.6053 17.7315C14.6277 17.7239 14.64 17.7152 14.6546 17.6988C14.6746 17.6765 14.7016 17.636 14.7378 17.5568C14.7648 17.4975 14.7876 17.4391 14.8163 17.3655C14.829 17.3328 14.8429 17.2972 14.8589 17.2571C16.4928 13.1436 18.6623 9.22351 22.3303 6.08708L22.3303 6.08702C25.9512 2.99192 30.3837 1.50091 35.3728 1.282C38.5521 1.1424 41.6249 1.56742 44.6345 2.42298C45.1103 2.55755 45.5399 2.75399 45.8726 3.05745C46.2158 3.37059 46.4289 3.77343 46.5019 4.2627L46.502 4.26359C46.9714 7.4515 46.4809 10.4892 44.2228 13.232L44.2228 13.2321C40.934 17.2257 35.7295 16.2191 33.1981 13.627L33.1978 13.6267C32.2449 12.6493 31.6505 11.3693 31.2045 10.212L31.2043 10.2116C30.9725 9.60861 31.0135 9.02415 31.31 8.55928C31.5998 8.10502 32.0893 7.8345 32.6232 7.75342C33.192 7.6668 33.734 7.74248 34.1768 8.06493C34.6144 8.38366 34.8756 8.88594 35.0082 9.48883C35.2429 10.5529 35.9097 11.3415 37.0232 11.905L37.0235 11.9052C37.7875 12.2925 38.4645 12.4182 39.0673 12.3307C39.6671 12.2437 40.2479 11.9377 40.8088 11.3629C42.3372 9.79543 42.9169 7.96706 42.7265 5.94257C42.7259 5.94101 42.7208 5.92104 42.6997 5.88259C42.6735 5.83493 42.6334 5.77855 42.5824 5.72253C42.5314 5.66665 42.4772 5.61941 42.4279 5.58569C42.4036 5.5691 42.3832 5.55759 42.3674 5.55013C42.3522 5.54292 42.3449 5.54111 42.3453 5.5412L42.3441 5.54094C35.6456 4.00317 29.5542 4.64228 24.5761 9.08128L24.5759 9.08138C21.8814 11.4826 20.1894 14.4575 18.879 17.6458C19.0898 17.6517 19.3007 17.6597 19.5083 17.6675C19.7426 17.6764 19.9726 17.685 20.1932 17.6904C20.8156 17.7057 21.4054 17.6972 21.9693 17.6115L21.9696 17.6115C24.2654 17.264 26.5427 16.8399 28.829 16.4142C29.6872 16.2544 30.5467 16.0943 31.4089 15.938C31.5043 15.9206 31.5977 15.8939 31.7185 15.8594C31.738 15.8538 31.7581 15.848 31.7791 15.8421C31.9184 15.8026 32.0922 15.7552 32.2796 15.735M10.5817 21.0025L14.4901 34.0364C15.5808 33.9565 15.799 33.2983 15.8099 32.4917L16.3098 32.4989C16.3098 32.4987 16.3098 32.4986 16.3098 32.4984C16.3619 28.8745 16.6397 25.2955 17.5251 21.7738C17.5876 21.5266 17.6467 21.4734 17.6729 21.4541C17.7166 21.4219 17.821 21.3756 18.1337 21.3492L18.1337 21.3492C18.6287 21.3074 19.1245 21.2664 19.6209 21.2254C22.3694 20.9981 25.1358 20.7693 27.8732 20.3952L27.8734 20.3952C29.3815 20.1887 30.8601 19.7574 32.2893 19.3404C32.6148 19.2455 32.9377 19.1513 33.2579 19.0606L33.258 19.0606C33.7288 18.9272 34.1381 18.6699 34.3855 18.2787C34.6393 17.8773 34.6828 17.3974 34.5299 16.9146M10.5817 21.0025C11.3686 21.1052 12.1723 21.1639 12.9883 21.2235C13.1991 21.2389 13.4108 21.2544 13.6233 21.2707L10.5817 21.0025ZM32.2796 15.735C32.72 15.6858 33.1872 15.7013 33.5981 15.8737C34.0334 16.0562 34.3676 16.4 34.5299 16.9146M32.2796 15.735C32.2793 15.735 32.2789 15.7351 32.2785 15.7351L32.3342 16.232L32.2808 15.7349C32.2804 15.7349 32.28 15.735 32.2796 15.735ZM34.5299 16.9146C34.5299 16.9147 34.53 16.9148 34.53 16.915L34.0534 17.0652L34.5298 16.9142C34.5298 16.9143 34.5299 16.9144 34.5299 16.9146Z" fill="#023047" stroke="#023047"/>
<path d="M157.468 17.6172C158.844 17.6172 159.533 18.0048 159.533 18.78C159.533 19.0458 159.433 19.4112 159.233 19.8763C157.205 24.0623 155.289 27.44 153.487 30.0092C152.586 31.2716 151.772 32.1354 151.046 32.6005C150.32 33.0656 149.494 33.2982 148.567 33.2982C147.566 33.2982 146.815 32.9549 146.314 32.2683C145.839 31.5817 145.538 30.4521 145.413 28.8796C145.363 28.3037 145.313 27.44 145.263 26.2882C144.487 28.193 143.773 29.6548 143.122 30.6736C142.496 31.6703 141.871 32.3569 141.245 32.7334C140.644 33.1099 139.918 33.2982 139.067 33.2982C138.04 33.2982 137.226 32.9438 136.626 32.2351C136.05 31.5263 135.687 30.4078 135.537 28.8796C135.236 25.7788 135.086 23.0657 135.086 20.7401V19.5773C135.111 18.8243 135.324 18.3149 135.724 18.0491C136.125 17.7612 136.776 17.6172 137.677 17.6172C138.328 17.6172 138.804 17.7501 139.104 18.0159C139.43 18.2595 139.592 18.6803 139.592 19.2783C139.592 21.8254 139.768 25.1365 140.118 29.2118C140.944 27.6614 141.708 26.1775 142.409 24.76C143.11 23.3425 143.923 21.5264 144.85 19.3115C145.125 18.6471 145.451 18.2041 145.826 17.9826C146.227 17.739 146.69 17.6172 147.216 17.6172C147.917 17.6172 148.442 17.7501 148.793 18.0159C149.143 18.2595 149.319 18.6803 149.319 19.2783V24.4278C149.319 26.6426 149.331 28.2373 149.356 29.2118C150.508 27.44 151.447 25.9007 152.173 24.5939C152.924 23.2872 153.762 21.5264 154.689 19.3115C154.964 18.6471 155.327 18.2041 155.778 17.9826C156.228 17.739 156.792 17.6172 157.468 17.6172Z" fill="#023047"/>
<path d="M136.813 22.9328C137.138 22.9328 137.389 23.0767 137.564 23.3647C137.739 23.6526 137.827 24.018 137.827 24.461C137.827 25.5241 137.464 26.1554 136.738 26.3547C135.236 26.8198 133.583 27.0856 131.781 27.152C131.305 29.0125 130.366 30.5075 128.964 31.6371C127.562 32.7445 125.973 33.2982 124.195 33.2982C122.693 33.2982 121.404 32.977 120.327 32.3347C119.276 31.6924 118.475 30.8397 117.924 29.7766C117.373 28.7135 117.098 27.5618 117.098 26.3215C117.098 24.6382 117.461 23.1432 118.187 21.8364C118.913 20.5075 119.914 19.4776 121.191 18.7468C122.468 17.9937 123.882 17.6172 125.434 17.6172C127.337 17.6172 128.864 18.2041 130.016 19.378C131.193 20.5297 131.881 21.9583 132.081 23.6637C133.258 23.5972 134.66 23.3757 136.287 22.9992C136.488 22.9549 136.663 22.9328 136.813 22.9328ZM124.496 29.7766C125.297 29.7766 125.985 29.4887 126.561 28.9128C127.162 28.337 127.562 27.5064 127.763 26.4211C126.987 25.956 126.386 25.3469 125.96 24.5939C125.56 23.8409 125.359 23.0435 125.359 22.2019C125.359 21.8475 125.397 21.4931 125.472 21.1388H125.284C124.283 21.1388 123.444 21.5707 122.768 22.4344C122.117 23.2761 121.792 24.4721 121.792 26.0225C121.792 27.2406 122.055 28.1709 122.58 28.8132C123.131 29.4555 123.77 29.7766 124.496 29.7766Z" fill="#023047"/>
<path d="M119.646 25.7228C119.971 25.7228 120.221 25.8557 120.397 26.1215C120.597 26.3873 120.697 26.7527 120.697 27.2179C120.697 28.1038 120.459 28.7904 119.983 29.2776C118.907 30.4515 117.73 31.415 116.454 32.168C115.202 32.921 113.775 33.2976 112.172 33.2976C109.969 33.2976 108.33 32.4116 107.253 30.6398C106.202 28.8679 105.676 26.5756 105.676 23.7627C105.676 21.0606 106.064 17.982 106.84 14.5269C107.641 11.0717 108.805 8.10387 110.332 5.62326C111.885 3.14265 113.725 1.90234 115.853 1.90234C117.054 1.90234 117.993 2.40068 118.669 3.39735C119.37 4.37188 119.721 5.7783 119.721 7.61661C119.721 10.2523 118.894 13.3087 117.242 16.786C115.59 20.2633 113.349 23.7073 110.52 27.1182C110.695 28.0263 110.983 28.6796 111.384 29.0783C111.784 29.4548 112.31 29.6431 112.961 29.6431C113.988 29.6431 114.889 29.3884 115.665 28.879C116.441 28.3474 117.43 27.4504 118.632 26.188C118.932 25.8779 119.27 25.7228 119.646 25.7228ZM115.026 5.19137C114.451 5.19137 113.8 6.11052 113.074 7.94883C112.348 9.78714 111.709 12.0684 111.159 14.7927C110.608 17.5169 110.307 20.1304 110.257 22.6332C112.035 20.0418 113.449 17.4505 114.501 14.8591C115.552 12.2456 116.078 9.86466 116.078 7.71627C116.078 6.033 115.727 5.19137 115.026 5.19137Z" fill="#023047"/>
<path d="M103.53 2.5653C104.304 2.66351 104.829 2.87222 105.106 3.19142C105.41 3.51062 105.562 3.92804 105.562 4.44367C105.562 6.13788 104.539 6.9236 102.493 6.80084L101.042 6.69034C99.4114 6.56757 97.7805 6.46936 96.1496 6.3957C94.5464 6.32204 92.8602 6.2852 91.0911 6.2852H89.2253C88.8936 9.91917 88.5481 13.2339 88.1887 16.2295L95.3204 16.119C96.3431 16.119 97.0203 16.2786 97.352 16.5978C97.7114 16.917 97.8911 17.3467 97.8911 17.8869C97.8911 18.7217 97.6146 19.3847 97.0618 19.8758C96.509 20.3423 95.7212 20.5755 94.6984 20.5755H87.6083L87.3595 22.1593C86.779 26.2106 85.5351 29.0957 83.6278 30.8145C81.7482 32.5333 79.1498 33.3926 75.8328 33.3926C73.9531 33.3926 72.2255 33.0366 70.6499 32.3246C69.0743 31.5879 67.9134 30.704 67.167 29.6727C66.863 29.2553 66.7109 28.752 66.7109 28.1627C66.7109 27.5734 66.863 27.0578 67.167 26.6158C67.4987 26.1738 67.8995 25.9528 68.3695 25.9528C68.7012 25.9528 69.019 26.051 69.3231 26.2475C69.6548 26.4439 70.0694 26.8245 70.567 27.3892C71.8938 28.9361 73.5385 29.7096 75.5011 29.7096C77.0767 29.7096 78.3897 29.1448 79.4401 28.0154C80.5181 26.8613 81.2091 25.0566 81.5132 22.6012L81.762 20.5755H79.7718C79.136 20.5755 78.5832 20.4159 78.1132 20.0967C77.671 19.7775 77.4498 19.3233 77.4498 18.734C77.4498 17.9728 77.671 17.3958 78.1132 17.003C78.5555 16.5855 79.2051 16.3768 80.062 16.3768C80.836 16.3768 81.5961 16.3646 82.3425 16.34C82.6742 13.6391 83.0335 10.3611 83.4205 6.50619C80.4352 6.75173 78.3344 7.18142 77.1181 7.79527C75.9019 8.40911 75.2938 9.3176 75.2938 10.5207C75.2938 11.3556 75.5702 12.1536 76.123 12.9147C76.2889 13.1357 76.3718 13.3567 76.3718 13.5777C76.3718 14.0197 76.0954 14.4125 75.5425 14.7563C74.9897 15.0755 74.3678 15.2351 73.6767 15.2351C72.9304 15.2351 72.2946 15.0386 71.7694 14.6458C71.4377 14.4002 71.1198 13.8969 70.8158 13.1357C70.5117 12.3746 70.3597 11.5275 70.3597 10.5944C70.3597 7.54973 72.1149 5.33988 75.6255 3.96487C79.1636 2.58985 84.3189 1.90234 91.0911 1.90234C95.7903 1.90234 99.9366 2.12333 103.53 2.5653Z" fill="#023047"/>
</svg>
