<svg width="213" height="40" viewBox="0 0 213 40" fill="none" xmlns="http://www.w3.org/2000/svg">
<path d="M14.596 29L13.056 25.436H5.356L3.838 29H0.89L7.82 13.6H10.636L17.588 29H14.596ZM6.324 23.192H12.11L9.206 16.46L6.324 23.192ZM19.2825 29V12.676H22.0325V29H19.2825ZM36.6859 23.192C36.6859 23.412 36.6639 23.742 36.6419 24.006H27.4239C27.7539 25.722 29.1839 26.822 31.2299 26.822C32.5499 26.822 33.5839 26.404 34.4199 25.546L35.8939 27.24C34.8379 28.494 33.1879 29.154 31.1639 29.154C27.2259 29.154 24.6739 26.624 24.6739 23.126C24.6739 19.628 27.2479 17.12 30.7459 17.12C34.1779 17.12 36.6859 19.518 36.6859 23.192ZM30.7459 19.32C28.9639 19.32 27.6659 20.464 27.4019 22.18H34.0679C33.8479 20.486 32.5499 19.32 30.7459 19.32ZM41.9454 18.968C42.7374 17.736 44.1674 17.12 46.1254 17.12V19.738C45.8834 19.694 45.6854 19.672 45.4874 19.672C43.3974 19.672 42.0774 20.904 42.0774 23.302V29H39.3274V17.252H41.9454V18.968ZM55.18 26.404L55.95 28.362C55.29 28.89 54.3 29.154 53.31 29.154C50.736 29.154 49.262 27.79 49.262 25.194V19.54H47.326V17.34H49.262V14.656H52.012V17.34H55.158V19.54H52.012V25.128C52.012 26.272 52.584 26.888 53.64 26.888C54.212 26.888 54.762 26.734 55.18 26.404ZM61.8422 29.154C59.8842 29.154 57.9262 28.582 56.8702 27.834L57.9262 25.744C58.9602 26.426 60.5442 26.91 62.0182 26.91C63.7562 26.91 64.4822 26.426 64.4822 25.612C64.4822 23.368 57.2222 25.48 57.2222 20.794C57.2222 18.572 59.2242 17.12 62.3922 17.12C63.9542 17.12 65.7362 17.494 66.7922 18.132L65.7362 20.222C64.6142 19.562 63.4922 19.342 62.3702 19.342C60.6982 19.342 59.9062 19.892 59.9062 20.662C59.9062 23.038 67.1662 20.926 67.1662 25.524C67.1662 27.724 65.1422 29.154 61.8422 29.154ZM82.2805 17.12C85.0965 17.12 87.1865 18.726 87.1865 22.268V29H84.4365V22.62C84.4365 20.53 83.4025 19.518 81.6425 19.518C79.6845 19.518 78.3645 20.706 78.3645 23.06V29H75.6145V12.676H78.3645V18.616C79.2665 17.648 80.6525 17.12 82.2805 17.12ZM92.0611 15.316C91.0491 15.316 90.3011 14.59 90.3011 13.666C90.3011 12.742 91.0491 12.016 92.0611 12.016C93.0731 12.016 93.8211 12.698 93.8211 13.6C93.8211 14.568 93.0951 15.316 92.0611 15.316ZM90.6751 29V17.252H93.4251V29H90.6751ZM100.664 29.154C98.7065 29.154 96.7485 28.582 95.6925 27.834L96.7485 25.744C97.7825 26.426 99.3665 26.91 100.84 26.91C102.578 26.91 103.304 26.426 103.304 25.612C103.304 23.368 96.0445 25.48 96.0445 20.794C96.0445 18.572 98.0465 17.12 101.214 17.12C102.776 17.12 104.558 17.494 105.614 18.132L104.558 20.222C103.436 19.562 102.314 19.342 101.192 19.342C99.5205 19.342 98.7285 19.892 98.7285 20.662C98.7285 23.038 105.988 20.926 105.988 25.524C105.988 27.724 103.964 29.154 100.664 29.154ZM114.649 26.404L115.419 28.362C114.759 28.89 113.769 29.154 112.779 29.154C110.205 29.154 108.731 27.79 108.731 25.194V19.54H106.795V17.34H108.731V14.656H111.481V17.34H114.627V19.54H111.481V25.128C111.481 26.272 112.053 26.888 113.109 26.888C113.681 26.888 114.231 26.734 114.649 26.404ZM122.574 29.154C118.966 29.154 116.326 26.646 116.326 23.126C116.326 19.606 118.966 17.12 122.574 17.12C126.226 17.12 128.844 19.606 128.844 23.126C128.844 26.646 126.226 29.154 122.574 29.154ZM122.574 26.8C124.576 26.8 126.072 25.37 126.072 23.126C126.072 20.882 124.576 19.452 122.574 19.452C120.594 19.452 119.098 20.882 119.098 23.126C119.098 25.37 120.594 26.8 122.574 26.8ZM134.092 18.968C134.884 17.736 136.314 17.12 138.272 17.12V19.738C138.03 19.694 137.832 19.672 137.634 19.672C135.544 19.672 134.224 20.904 134.224 23.302V29H131.474V17.252H134.092V18.968ZM149.394 17.252H152.034L146.534 29.946C145.456 32.608 143.96 33.422 142.002 33.422C140.836 33.422 139.604 33.026 138.856 32.344L139.956 30.32C140.484 30.826 141.232 31.134 141.98 31.134C142.948 31.134 143.52 30.672 144.048 29.506L144.246 29.044L139.12 17.252H141.98L145.676 25.942L149.394 17.252Z" fill="#023047"/>
<path d="M193.75 5C189.573 5 185.567 6.58035 182.613 9.3934C179.659 12.2064 178 16.0218 178 20H172.75L179.557 26.4833L179.68 26.7167L186.75 20H181.5C181.5 13.55 186.977 8.33333 193.75 8.33333C200.522 8.33333 206 13.55 206 20C206 26.45 200.522 31.6667 193.75 31.6667C190.372 31.6667 187.31 30.35 185.105 28.2333L182.62 30.6C184.078 31.9967 185.813 33.1046 187.723 33.8597C189.633 34.6149 191.682 35.0025 193.75 35C197.927 35 201.933 33.4196 204.887 30.6066C207.841 27.7936 209.5 23.9782 209.5 20C209.5 16.0218 207.841 12.2064 204.887 9.3934C201.933 6.58035 197.927 5 193.75 5ZM192 13.3333V21.6667L199.438 25.8667L200.785 23.7333L194.625 20.25V13.3333H192Z" fill="#023047"/>
</svg>
