<svg width="40" height="40" viewBox="0 0 40 40" fill="none" xmlns="http://www.w3.org/2000/svg">
<path d="M20.0013 5.41602C20.3328 5.41602 20.6508 5.54771 20.8852 5.78213C21.1196 6.01655 21.2513 6.3345 21.2513 6.66602C21.2513 6.99754 21.1196 7.31548 20.8852 7.5499C20.6508 7.78432 20.3328 7.91602 20.0013 7.91602C16.7966 7.91602 13.7232 9.18908 11.4571 11.4551C9.19103 13.7212 7.91797 16.7946 7.91797 19.9993C7.91797 23.204 9.19103 26.2775 11.4571 28.5436C13.7232 30.8096 16.7966 32.0827 20.0013 32.0827C20.3328 32.0827 20.6508 32.2144 20.8852 32.4488C21.1196 32.6832 21.2513 33.0012 21.2513 33.3327C21.2513 33.6642 21.1196 33.9821 20.8852 34.2166C20.6508 34.451 20.3328 34.5827 20.0013 34.5827C16.1336 34.5827 12.4242 33.0462 9.68933 30.3113C6.95442 27.5764 5.41797 23.8671 5.41797 19.9993C5.41797 16.1316 6.95442 12.4223 9.68933 9.68738C12.4242 6.95247 16.1336 5.41602 20.0013 5.41602Z" fill="#023047"/>
<path d="M27.4513 15.8834C27.2305 15.6464 27.1103 15.333 27.116 15.0092C27.1217 14.6854 27.2529 14.3764 27.4819 14.1474C27.711 13.9183 28.0199 13.7872 28.3438 13.7814C28.6676 13.7757 28.981 13.8959 29.218 14.1167L34.218 19.1167C34.4521 19.3511 34.5835 19.6688 34.5835 20.0001C34.5835 20.3313 34.4521 20.649 34.218 20.8834L29.218 25.8834C29.1035 26.0062 28.9655 26.1047 28.8122 26.173C28.6589 26.2414 28.4933 26.2781 28.3255 26.2811C28.1577 26.284 27.991 26.2531 27.8353 26.1903C27.6797 26.1274 27.5383 26.0338 27.4196 25.9151C27.3009 25.7964 27.2073 25.655 27.1444 25.4994C27.0816 25.3438 27.0507 25.177 27.0537 25.0092C27.0566 24.8414 27.0933 24.6758 27.1617 24.5225C27.23 24.3692 27.3285 24.2312 27.4513 24.1167L30.318 21.2501H16.668C16.3364 21.2501 16.0185 21.1184 15.7841 20.884C15.5497 20.6495 15.418 20.3316 15.418 20.0001C15.418 19.6686 15.5497 19.3506 15.7841 19.1162C16.0185 18.8818 16.3364 18.7501 16.668 18.7501H30.318L27.4513 15.8834Z" fill="#023047"/>
</svg>
