<svg width="50" height="49" viewBox="0 0 50 49" fill="none" xmlns="http://www.w3.org/2000/svg">
<path d="M49.7703 24.5C49.7703 10.9699 38.6786 0 24.9995 0C11.3203 0 0.226562 10.9699 0.226562 24.5C0.226562 38.0301 11.3182 49 24.9995 49C29.1953 49 33.1453 47.9628 36.6099 46.1417C37.9016 46.8644 39.3974 47.2809 40.9953 47.2809C45.8411 47.2809 49.7703 43.4732 49.7703 38.7774C49.7703 36.846 49.1057 35.0656 47.9849 33.6385C49.1349 30.8149 49.7703 27.7299 49.7703 24.5ZM5.18281 24.5102C5.18281 13.3872 14.0766 4.37121 25.0474 4.37121C36.0182 4.37121 44.912 13.3872 44.912 24.5102C44.912 26.6948 44.5661 28.7957 43.9307 30.7638C42.9885 30.4383 41.9964 30.2732 40.9974 30.2759C36.1516 30.2759 32.2224 34.0836 32.2224 38.7794C32.2224 40.2494 32.6078 41.6316 33.2849 42.8383C30.7113 44.0348 27.898 44.6542 25.0495 44.6513C14.0766 44.6492 5.18281 35.6312 5.18281 24.5102ZM40.9974 44.6492C37.8432 44.6921 35.0807 42.0624 35.1245 38.957C35.1245 35.8129 37.7536 33.2649 40.9974 33.2649C44.137 33.2138 46.9203 35.8578 46.8703 38.957C46.8703 42.1012 44.2391 44.6492 40.9974 44.6492Z" fill="#023047"/>
</svg>
