<svg width="57" height="52" viewBox="0 0 57 52" fill="none" xmlns="http://www.w3.org/2000/svg">
<path d="M19.95 51.87C14.155 51.2633 9.38125 48.9883 5.62875 45.045C1.87625 41.1017 0 36.3133 0 30.68C0 26.3467 1.8886 21.6346 5.6658 16.5438C9.443 11.453 15.1544 5.9384 22.8 0C30.4475 5.93667 36.1599 11.4513 39.937 16.5438C43.7143 21.6363 45.6019 26.3484 45.6 30.68V31.2H39.9V30.68C39.9 27.5167 38.4627 23.9417 35.588 19.955C32.7133 15.9683 28.4506 11.6133 22.8 6.89C17.1475 11.6133 12.8849 15.9683 10.0121 19.955C7.13925 23.9417 5.7019 27.5167 5.7 30.68C5.7 34.8833 7.03 38.4367 9.69 41.34C12.35 44.2433 15.77 45.9983 19.95 46.605V51.87ZM25.65 52V36.4H35.625C36.765 36.4 37.7625 36.79 38.6175 37.57C39.4725 38.35 39.9 39.26 39.9 40.3V42.9C39.9 43.94 39.4725 44.85 38.6175 45.63C37.7625 46.41 36.765 46.8 35.625 46.8H29.925V52H25.65ZM42.75 52V36.4H47.025V41.6H52.725V36.4H57V52H52.725V45.5H47.025V52H42.75ZM29.925 42.9H35.625V40.3H29.925V42.9Z" fill="#023047"/>
</svg>
