<svg width="40" height="40" viewBox="0 0 40 40" fill="none" xmlns="http://www.w3.org/2000/svg">
<path d="M21.7769 18.838L21.552 18.722V11.288C21.5367 10.9319 21.3669 10.5949 21.0781 10.3477C20.7894 10.1006 20.4042 9.96249 20.0034 9.96249C19.6026 9.96249 19.2174 10.1006 18.9286 10.3477C18.6399 10.5949 18.4701 10.9319 18.4548 11.288V11.46H19.4894C19.5819 11.46 19.6706 11.4927 19.7359 11.5508C19.8013 11.6089 19.8381 11.6878 19.8381 11.77C19.8381 11.8522 19.8013 11.9311 19.7359 11.9892C19.6706 12.0473 19.5819 12.08 19.4894 12.08H18.4548V12.894H19.4894C19.5819 12.894 19.6706 12.9267 19.7359 12.9848C19.8013 13.0429 19.8381 13.1218 19.8381 13.204C19.8381 13.2862 19.8013 13.3651 19.7359 13.4232C19.6706 13.4813 19.5819 13.514 19.4894 13.514H18.4548V14.328H19.4894C19.5819 14.328 19.6706 14.3607 19.7359 14.4188C19.8013 14.4769 19.8381 14.5558 19.8381 14.638C19.8381 14.7202 19.8013 14.7991 19.7359 14.8572C19.6706 14.9153 19.5819 14.948 19.4894 14.948H18.4548V18.724L18.2299 18.838C17.5393 19.187 16.9979 19.7293 16.6902 20.3804C16.3824 21.0316 16.3256 21.7549 16.5286 22.4378C16.7315 23.1207 17.1829 23.7246 17.8122 24.1556C18.4416 24.5865 19.2136 24.8202 20.0079 24.8202C20.8022 24.8202 21.5742 24.5865 22.2035 24.1556C22.8329 23.7246 23.2842 23.1207 23.4872 22.4378C23.6901 21.7549 23.6333 21.0316 23.3256 20.3804C23.0178 19.7293 22.4765 19.187 21.7859 18.838H21.7769ZM20 23.974C19.4175 23.9711 18.8523 23.7978 18.3917 23.4808C17.931 23.1638 17.6006 22.7207 17.4514 22.2201C17.3022 21.7194 17.3425 21.189 17.5661 20.7107C17.7898 20.2325 18.1843 19.833 18.6887 19.574C18.9019 19.4655 19.0791 19.3088 19.2023 19.1199C19.3255 18.931 19.3904 18.7164 19.3905 18.498V16.2C19.3905 16.0568 19.4544 15.9194 19.5683 15.8182C19.6822 15.7169 19.8367 15.66 19.9977 15.66C20.1588 15.66 20.3133 15.7169 20.4272 15.8182C20.5411 15.9194 20.605 16.0568 20.605 16.2V18.48C20.6049 18.699 20.67 18.914 20.7936 19.1034C20.9173 19.2927 21.0951 19.4496 21.309 19.558C21.8135 19.817 22.208 20.2165 22.4316 20.6947C22.6553 21.173 22.6956 21.7034 22.5464 22.2041C22.3972 22.7047 22.0667 23.1478 21.6061 23.4648C21.1454 23.7818 20.5802 23.9551 19.9977 23.958L20 23.974ZM34.0014 4.432H6.0009C4.41012 4.43306 2.8848 4.99531 1.75973 5.99534C0.634668 6.99537 0.00178695 8.35148 0 9.766V34.664C0.00119144 36.0789 0.63381 37.4355 1.75894 38.436C2.88407 39.4364 4.40973 39.9989 6.0009 40H34.0014C35.5921 39.9984 37.1172 39.4357 38.2419 38.4352C39.3665 37.4348 39.9988 36.0785 40 34.664V9.766C39.9982 8.35182 39.3656 6.99602 38.2411 5.99605C37.1165 4.99607 35.5917 4.43359 34.0014 4.432ZM18.0319 37.668C18.0319 37.86 17.9462 38.0442 17.7935 38.1799C17.6408 38.3157 17.4337 38.392 17.2177 38.392C17.0018 38.392 16.7947 38.3157 16.642 38.1799C16.4893 38.0442 16.4035 37.86 16.4035 37.668V34.736C16.4035 34.544 16.4893 34.3598 16.642 34.2241C16.7947 34.0883 17.0018 34.012 17.2177 34.012C17.4337 34.012 17.6408 34.0883 17.7935 34.2241C17.9462 34.3598 18.0319 34.544 18.0319 34.736V37.668ZM20.8097 37.668C20.8155 37.7661 20.7988 37.8643 20.7606 37.9565C20.7223 38.0487 20.6634 38.1331 20.5873 38.2044C20.5112 38.2757 20.4196 38.3324 20.3181 38.3712C20.2165 38.41 20.1072 38.43 19.9966 38.43C19.8861 38.43 19.7767 38.41 19.6752 38.3712C19.5736 38.3324 19.482 38.2757 19.406 38.2044C19.3299 38.1331 19.2709 38.0487 19.2327 37.9565C19.1945 37.8643 19.1777 37.7661 19.1835 37.668V34.736C19.1945 34.5508 19.2849 34.3764 19.4362 34.2488C19.5875 34.1212 19.7881 34.05 19.9966 34.05C20.2052 34.05 20.4058 34.1212 20.557 34.2488C20.7083 34.3764 20.7988 34.5508 20.8097 34.736V37.668ZM20 31.456C19.6979 31.456 19.4027 31.3764 19.1515 31.2271C18.9004 31.0779 18.7046 30.8658 18.589 30.6177C18.4734 30.3695 18.4432 30.0965 18.5021 29.8331C18.5611 29.5696 18.7065 29.3277 18.9201 29.1377C19.1337 28.9478 19.4058 28.8185 19.7021 28.7661C19.9983 28.7137 20.3054 28.7406 20.5844 28.8434C20.8635 28.9462 21.102 29.1202 21.2698 29.3435C21.4376 29.5669 21.5272 29.8294 21.5272 30.098C21.5266 30.458 21.3655 30.8031 21.0792 31.0577C20.793 31.3122 20.4049 31.4555 20 31.456ZM23.5987 37.668C23.5987 37.86 23.513 38.0442 23.3603 38.1799C23.2076 38.3157 23.0005 38.392 22.7845 38.392C22.5686 38.392 22.3615 38.3157 22.2088 38.1799C22.0561 38.0442 21.9703 37.86 21.9703 37.668V34.736C21.9703 34.544 22.0561 34.3598 22.2088 34.2241C22.3615 34.0883 22.5686 34.012 22.7845 34.012C23.0005 34.012 23.2076 34.0883 23.3603 34.2241C23.513 34.3598 23.5987 34.544 23.5987 34.736V37.668ZM20 25.616C19.0335 25.613 18.0937 25.3333 17.3199 24.8182C16.5462 24.3032 15.9795 23.5803 15.704 22.7565C15.4284 21.9327 15.4585 21.0519 15.7899 20.2446C16.1213 19.4372 16.7363 18.7463 17.5439 18.274V11.288C17.5439 10.7093 17.8024 10.1543 18.2626 9.74509C18.7228 9.33589 19.3469 9.106 19.9977 9.106C20.6486 9.106 21.2727 9.33589 21.7329 9.74509C22.1931 10.1543 22.4516 10.7093 22.4516 11.288V18.272C23.2599 18.7437 23.8757 19.4344 24.2079 20.2418C24.54 21.0491 24.5708 21.9302 24.2957 22.7543C24.0206 23.5784 23.4542 24.3018 22.6804 24.8173C21.9067 25.3327 20.9668 25.6128 20 25.616ZM34.0014 3.318C35.4754 3.31841 36.9137 3.72122 38.1219 4.472C38.0286 3.26078 37.4226 2.12599 36.426 1.29619C35.4294 0.466392 34.1161 0.00323278 32.7508 0H7.24921C5.88427 0.00373767 4.5716 0.467122 3.57544 1.29687C2.57928 2.12662 1.97361 3.26112 1.88034 4.472C3.08857 3.72122 4.52689 3.31841 6.0009 3.318H34.0014Z" fill="#023047"/>
</svg>
