<svg width="40" height="40" viewBox="0 0 40 40" fill="none" xmlns="http://www.w3.org/2000/svg">
<path fill-rule="evenodd" clip-rule="evenodd" d="M23.7453 0.304C22.9664 -8.9407e-08 21.9769 0 20.0001 0C18.0233 0 17.036 -8.9407e-08 16.255 0.304C15.218 0.708422 14.3926 1.48753 13.9603 2.47C13.7624 2.916 13.6866 3.438 13.655 4.196C13.641 4.74521 13.4797 5.28194 13.1865 5.75544C12.8933 6.22894 12.4778 6.62357 11.9793 6.902C11.4714 7.17021 10.9005 7.31229 10.3194 7.31509C9.73831 7.31788 9.16589 7.1813 8.65516 6.918C7.9436 6.562 7.42783 6.366 6.91837 6.302C5.80378 6.16297 4.67648 6.4476 3.78161 7.094C3.11216 7.578 2.61743 8.386 1.63009 10C0.640647 11.614 0.148029 12.42 0.0364527 13.21C-0.110912 14.262 0.192238 15.326 0.878535 16.168C1.19011 16.552 1.63009 16.874 2.31008 17.278C3.31426 17.872 3.95845 18.884 3.95845 20C3.95845 21.116 3.31426 22.128 2.31218 22.72C1.63009 23.126 1.19011 23.448 0.87643 23.832C0.537666 24.2479 0.289013 24.7234 0.144838 25.2311C0.000662911 25.7389 -0.0361752 26.2687 0.0364527 26.79C0.148029 27.578 0.640647 28.386 1.63009 30C2.61954 31.614 3.11216 32.42 3.78161 32.906C4.67422 33.552 5.80261 33.836 6.91837 33.698C7.42783 33.634 7.9436 33.438 8.65516 33.082C9.16615 32.8183 9.73896 32.6816 10.3204 32.6844C10.9019 32.6872 11.4732 32.8294 11.9814 33.098C13.0045 33.658 13.6108 34.688 13.655 35.804C13.6866 36.564 13.7624 37.084 13.9603 37.53C14.3897 38.51 15.215 39.29 16.255 39.696C17.0339 40 18.0233 40 20.0001 40C21.9769 40 22.9664 40 23.7453 39.696C24.7822 39.2916 25.6076 38.5125 26.04 37.53C26.2378 37.084 26.3136 36.564 26.3452 35.804C26.3873 34.688 26.9957 33.656 28.0209 33.098C28.5288 32.8298 29.0998 32.6877 29.6809 32.6849C30.2619 32.6821 30.8343 32.8187 31.3451 33.082C32.0566 33.438 32.5724 33.634 33.0819 33.698C34.1976 33.838 35.326 33.552 36.2186 32.906C36.8881 32.422 37.3828 31.614 38.3701 30C39.3596 28.386 39.8522 27.58 39.9638 26.79C40.0361 26.2685 39.9989 25.7386 39.8544 25.2309C39.7099 24.7232 39.4608 24.2477 39.1217 23.832C38.8101 23.448 38.3701 23.126 37.6902 22.722C36.686 22.128 36.0418 21.116 36.0418 20C36.0418 18.884 36.686 17.872 37.6881 17.28C38.3701 16.874 38.8101 16.552 39.1238 16.168C39.4626 15.7521 39.7112 15.2766 39.8554 14.7689C39.9996 14.2611 40.0364 13.7313 39.9638 13.21C39.8522 12.422 39.3596 11.614 38.3701 10C37.3807 8.386 36.8881 7.58 36.2186 7.094C35.3238 6.4476 34.1965 6.16297 33.0819 6.302C32.5724 6.366 32.0566 6.562 31.3451 6.918C30.8341 7.18166 30.2613 7.31843 29.6798 7.31564C29.0983 7.31284 28.527 7.17056 28.0188 6.902C27.5207 6.62332 27.1057 6.22859 26.8128 5.7551C26.52 5.28162 26.359 4.74502 26.3452 4.196C26.3136 3.436 26.2378 2.916 26.04 2.47C25.826 1.98347 25.5132 1.54177 25.1194 1.17012C24.7257 0.798466 24.2588 0.504156 23.7453 0.304ZM20.0001 26C23.5158 26 26.3642 23.314 26.3642 20C26.3642 16.686 23.5137 14 20.0001 14C16.4844 14 13.6361 16.686 13.6361 20C13.6361 23.314 16.4865 26 20.0001 26Z" fill="#023047"/>
</svg>
