<svg width="71" height="64" viewBox="0 0 71 64" fill="none" xmlns="http://www.w3.org/2000/svg">
<path d="M11.1634 39.8593L11.1634 39.8593C9.70218 41.5656 8.83887 43.6867 8.83887 46.009C8.83887 51.5585 13.8231 56.0471 19.9688 56.0471C26.1144 56.0471 31.0986 51.5585 31.0986 46.009C31.0986 43.6868 30.2354 41.5657 28.7741 39.8718C27.6406 38.5507 26.6611 36.7334 26.6611 34.5818V14.0027C26.6611 10.6662 23.6599 7.96543 19.9688 7.96543C16.2776 7.96543 13.2764 10.6662 13.2764 14.0027V34.5693C13.2764 36.7209 12.2969 38.5382 11.1634 39.8593ZM35.7357 35.0049L35.7361 35.0054C38.3518 38.05 39.9014 41.8675 39.9014 45.9965C39.9014 55.9125 30.9768 63.9639 19.9688 63.9639C8.96064 63.9639 0.0361328 55.925 0.0361328 46.009C0.0361328 41.8675 1.58572 38.05 4.20139 35.0179L4.2018 35.0174C4.32672 34.8673 4.41358 34.7381 4.44366 34.6568C4.44863 34.6433 4.45348 34.6319 4.45795 34.6213C4.4594 34.6179 4.46082 34.6146 4.46219 34.6113C4.46484 34.6049 4.46749 34.5983 4.4695 34.5921C4.47133 34.5864 4.47363 34.5782 4.47363 34.5693V14.0027C4.47363 6.29959 11.4013 0.0361328 19.9688 0.0361328C28.5362 0.0361328 35.4639 6.28711 35.4639 14.0027V34.5568C35.4639 34.5657 35.4662 34.5739 35.468 34.5796C35.47 34.5858 35.4727 34.5924 35.4753 34.5988C35.4767 34.6021 35.4781 34.6054 35.4796 34.6089C35.484 34.6194 35.4889 34.6309 35.4938 34.6443C35.5239 34.7256 35.6108 34.8548 35.7357 35.0049ZM17.761 40.3798L17.7861 40.3718V40.3454V34.0066C17.7861 32.9298 18.7648 32.0424 19.9688 32.0424C21.1727 32.0424 22.1514 32.9298 22.1514 34.0066V40.3454V40.3718L22.1765 40.3798C24.7433 41.201 26.5889 43.4142 26.5889 46.009C26.5889 49.2987 23.6272 51.974 19.9688 51.974C16.3103 51.974 13.3486 49.2987 13.3486 46.009C13.3486 43.4142 15.1942 41.201 17.761 40.3798ZM62.1611 12.0023C62.1611 10.9304 61.6888 9.90324 60.8495 9.14653C60.0103 8.38993 58.8728 7.96543 57.6875 7.96543C56.5022 7.96543 55.3647 8.38993 54.5255 9.14653C53.6862 9.90324 53.2139 10.9304 53.2139 12.0023C53.2139 13.0743 53.6862 14.1015 54.5255 14.8582C55.3647 15.6148 56.5022 16.0393 57.6875 16.0393C58.8728 16.0393 60.0103 15.6148 60.8495 14.8582C61.6888 14.1015 62.1611 13.0743 62.1611 12.0023ZM44.4111 12.0023C44.4111 8.82999 45.8089 5.7867 48.2983 3.54224C50.7879 1.29767 54.1652 0.0361328 57.6875 0.0361328C61.2098 0.0361328 64.5871 1.29767 67.0767 3.54224C69.5661 5.7867 70.9639 8.82999 70.9639 12.0023C70.9639 15.1747 69.5661 18.218 67.0767 20.4624C64.5871 22.707 61.2098 23.9686 57.6875 23.9686C54.1652 23.9686 50.7879 22.707 48.2983 20.4624C45.8089 18.218 44.4111 15.1747 44.4111 12.0023Z" fill="#023047" stroke="#FF6666" stroke-width="0.0722656"/>
</svg>
