<svg width="53" height="61" viewBox="0 0 53 61" fill="none" xmlns="http://www.w3.org/2000/svg">
<mask id="path-1-inside-1_284_5031" fill="white">
<path d="M47.2 0C44.5 0 42.2 2.2 42.2 5C42.2 6 42.5 6.9 43 7.7L30 19.8C28.3 18.4 26.1 17.6 23.9 17.6C20.7 17.6 17.8 19.2 16.1 21.6L10 18.5C10.1 18.2 10.1 17.8 10.1 17.5C10.1 14.8 7.9 12.5 5.1 12.5C2.3 12.5 0.0999999 14.7 0.0999999 17.5C0.0999999 20.3 2.3 22.5 5.1 22.5C6.8 22.5 8.3 21.7 9.2 20.4L15.1 23.5C14.6 24.6 14.3 25.9 14.3 27.2C14.3 29.3 15 31.2 16.2 32.9L7.8 40.7C7 40.2 6.1 39.9 5 39.9C2.3 39.9 0 42.1 0 44.9C0 47.7 2.2 49.9 5 49.9C7.8 49.9 10 47.7 10 44.9C10 43.9 9.7 43 9.2 42.2L17.5 34.4C19.2 35.9 21.5 36.8 23.8 36.8C25.6 36.8 27.3 36.3 28.7 35.4L37.4 52.2C36.8 53 36.4 54 36.4 55.1C36.4 57.8 38.6 60.1 41.4 60.1C44.2 60.1 46.4 57.9 46.4 55.1C46.4 52.3 44.2 50.1 41.4 50.1C40.5 50.1 39.7 50.4 38.9 50.8L30.3 34.2C32.1 32.5 33.3 30 33.3 27.3C33.3 25.1 32.6 23.1 31.3 21.4L44.4 9.2C45.3 9.6 46.2 10 47.2 10C49.9 10 52.2 7.8 52.2 5C52.2 2.2 50 0 47.2 0ZM5.2 20.5C3.6 20.5 2.2 19.2 2.2 17.5C2.2 15.8 3.5 14.5 5.2 14.5C6.9 14.5 8.2 15.8 8.2 17.5C8.2 19.2 6.8 20.5 5.2 20.5ZM44.5 55C44.5 56.6 43.2 58 41.5 58C39.8 58 38.5 56.7 38.5 55C38.5 53.3 39.8 52 41.5 52C43.2 52 44.5 53.4 44.5 55ZM5.2 47.8C3.6 47.8 2.2 46.5 2.2 44.8C2.2 43.1 3.5 41.8 5.2 41.8C6.9 41.8 8.2 43.1 8.2 44.8C8.2 46.5 6.8 47.8 5.2 47.8ZM23.9 34.7C21.8 34.7 19.8 33.8 18.4 32.2C17.1 30.8 16.4 29 16.4 27.1C16.4 22.9 19.8 19.6 23.9 19.6C25.9 19.6 27.9 20.4 29.3 21.9C30.7 23.3 31.4 25.2 31.4 27.1C31.5 31.3 28.1 34.7 23.9 34.7ZM47.2 8C45.6 8 44.2 6.7 44.2 5C44.2 3.3 45.5 2 47.2 2C48.9 2 50.2 3.3 50.2 5C50.2 6.7 48.9 8 47.2 8Z"/>
</mask>
<path d="M47.2 0C44.5 0 42.2 2.2 42.2 5C42.2 6 42.5 6.9 43 7.7L30 19.8C28.3 18.4 26.1 17.6 23.9 17.6C20.7 17.6 17.8 19.2 16.1 21.6L10 18.5C10.1 18.2 10.1 17.8 10.1 17.5C10.1 14.8 7.9 12.5 5.1 12.5C2.3 12.5 0.0999999 14.7 0.0999999 17.5C0.0999999 20.3 2.3 22.5 5.1 22.5C6.8 22.5 8.3 21.7 9.2 20.4L15.1 23.5C14.6 24.6 14.3 25.9 14.3 27.2C14.3 29.3 15 31.2 16.2 32.9L7.8 40.7C7 40.2 6.1 39.9 5 39.9C2.3 39.9 0 42.1 0 44.9C0 47.7 2.2 49.9 5 49.9C7.8 49.9 10 47.7 10 44.9C10 43.9 9.7 43 9.2 42.2L17.5 34.4C19.2 35.9 21.5 36.8 23.8 36.8C25.6 36.8 27.3 36.3 28.7 35.4L37.4 52.2C36.8 53 36.4 54 36.4 55.1C36.4 57.8 38.6 60.1 41.4 60.1C44.2 60.1 46.4 57.9 46.4 55.1C46.4 52.3 44.2 50.1 41.4 50.1C40.5 50.1 39.7 50.4 38.9 50.8L30.3 34.2C32.1 32.5 33.3 30 33.3 27.3C33.3 25.1 32.6 23.1 31.3 21.4L44.4 9.2C45.3 9.6 46.2 10 47.2 10C49.9 10 52.2 7.8 52.2 5C52.2 2.2 50 0 47.2 0ZM5.2 20.5C3.6 20.5 2.2 19.2 2.2 17.5C2.2 15.8 3.5 14.5 5.2 14.5C6.9 14.5 8.2 15.8 8.2 17.5C8.2 19.2 6.8 20.5 5.2 20.5ZM44.5 55C44.5 56.6 43.2 58 41.5 58C39.8 58 38.5 56.7 38.5 55C38.5 53.3 39.8 52 41.5 52C43.2 52 44.5 53.4 44.5 55ZM5.2 47.8C3.6 47.8 2.2 46.5 2.2 44.8C2.2 43.1 3.5 41.8 5.2 41.8C6.9 41.8 8.2 43.1 8.2 44.8C8.2 46.5 6.8 47.8 5.2 47.8ZM23.9 34.7C21.8 34.7 19.8 33.8 18.4 32.2C17.1 30.8 16.4 29 16.4 27.1C16.4 22.9 19.8 19.6 23.9 19.6C25.9 19.6 27.9 20.4 29.3 21.9C30.7 23.3 31.4 25.2 31.4 27.1C31.5 31.3 28.1 34.7 23.9 34.7ZM47.2 8C45.6 8 44.2 6.7 44.2 5C44.2 3.3 45.5 2 47.2 2C48.9 2 50.2 3.3 50.2 5C50.2 6.7 48.9 8 47.2 8Z" fill="black"/>
<path d="M43 7.7L49.1318 14.2879L54.5682 9.22793L50.632 2.93001L43 7.7ZM30 19.8L24.2786 26.7474L30.3626 31.7577L36.1318 26.3879L30 19.8ZM16.1 21.6L12.0225 29.6234L18.9516 33.1447L23.4442 26.8022L16.1 21.6ZM10 18.5L1.46185 15.6539L-0.990265 23.0103L5.92255 26.5234L10 18.5ZM9.2 20.4L13.3862 12.4328L6.33448 8.72769L1.80027 15.2771L9.2 20.4ZM15.1 23.5L23.2933 27.2242L26.8105 19.4863L19.2862 15.5328L15.1 23.5ZM16.2 32.9L22.3241 39.4951L28.0914 34.1397L23.5527 27.7099L16.2 32.9ZM7.8 40.7L3.03001 48.332L8.874 51.9845L13.9241 47.2951L7.8 40.7ZM9.2 42.2L3.03665 35.6416L-2.349 40.7028L1.56802 46.97L9.2 42.2ZM17.5 34.4L23.4546 27.6515L17.3091 22.2289L11.3366 27.8416L17.5 34.4ZM28.7 35.4L36.692 31.2613L32.147 22.4848L23.8332 27.8294L28.7 35.4ZM37.4 52.2L44.6 57.6L47.9905 53.0793L45.392 48.0613L37.4 52.2ZM38.9 50.8L30.9088 54.94L34.9898 62.8174L42.9249 58.8498L38.9 50.8ZM30.3 34.2L24.1204 27.6569L19.1876 32.3156L22.3088 38.34L30.3 34.2ZM31.3 21.4L25.1663 14.8138L19.1898 20.3797L24.1508 26.8671L31.3 21.4ZM44.4 9.2L48.0552 0.975696L42.6194 -1.44023L38.2663 2.61382L44.4 9.2ZM18.4 32.2L25.1732 26.2735L25.0856 26.1734L24.9951 26.0759L18.4 32.2ZM29.3 21.9L22.7205 28.0409L22.8263 28.1543L22.936 28.264L29.3 21.9ZM31.4 27.1H22.4V27.2071L22.4026 27.3142L31.4 27.1ZM47.2 -9C39.6469 -9 33.2 -2.88719 33.2 5H51.2C51.2 7.28719 49.3531 9 47.2 9V-9ZM33.2 5C33.2 7.89559 34.0916 10.4277 35.368 12.47L50.632 2.93001C50.9084 3.37235 51.2 4.10441 51.2 5H33.2ZM36.8682 1.11208L23.8682 13.2121L36.1318 26.3879L49.1318 14.2879L36.8682 1.11208ZM35.7214 12.8526C32.4334 10.1449 28.2176 8.6 23.9 8.6V26.6C23.9824 26.6 24.1666 26.6551 24.2786 26.7474L35.7214 12.8526ZM23.9 8.6C17.7148 8.6 12.1045 11.6702 8.75578 16.3978L23.4442 26.8022C23.451 26.7925 23.5031 26.7303 23.6108 26.6739C23.7089 26.6226 23.8073 26.6 23.9 26.6V8.6ZM20.1774 13.5766L14.0774 10.4766L5.92255 26.5234L12.0225 29.6234L20.1774 13.5766ZM18.5381 21.3461C18.9311 20.1672 19.0289 19.1409 19.0646 18.6412C19.1035 18.0969 19.1 17.6087 19.1 17.5H1.1C1.1 17.6913 1.09649 17.5531 1.11037 17.3588C1.11863 17.2431 1.13679 17.0406 1.18027 16.7798C1.2226 16.5258 1.30282 16.131 1.46185 15.6539L18.5381 21.3461ZM19.1 17.5C19.1 9.94688 12.9872 3.5 5.1 3.5V21.5C2.8128 21.5 1.1 19.6531 1.1 17.5H19.1ZM5.1 3.5C-2.67056 3.5 -8.9 9.72944 -8.9 17.5H9.1C9.1 19.6706 7.27056 21.5 5.1 21.5V3.5ZM-8.9 17.5C-8.9 25.2706 -2.67056 31.5 5.1 31.5V13.5C7.27056 13.5 9.1 15.3294 9.1 17.5H-8.9ZM5.1 31.5C9.68805 31.5 13.9819 29.3042 16.5997 25.5229L1.80027 15.2771C2.61812 14.0958 3.91195 13.5 5.1 13.5V31.5ZM5.01385 28.3672L10.9138 31.4672L19.2862 15.5328L13.3862 12.4328L5.01385 28.3672ZM6.9067 19.7758C5.89163 22.0089 5.3 24.5758 5.3 27.2H23.3C23.3 27.2202 23.2989 27.2288 23.2991 27.2268C23.2993 27.2248 23.3002 27.2182 23.3023 27.2088C23.3033 27.2044 23.3042 27.2005 23.3051 27.1972C23.306 27.1939 23.3066 27.1921 23.3067 27.1919C23.3068 27.1917 23.306 27.194 23.3041 27.1989C23.3022 27.2038 23.2987 27.2122 23.2933 27.2242L6.9067 19.7758ZM5.3 27.2C5.3 31.4294 6.74297 35.109 8.84729 38.0901L23.5527 27.7099C23.389 27.4779 23.3326 27.3368 23.3155 27.2868C23.3019 27.2472 23.3 27.2303 23.3 27.2H5.3ZM10.0759 26.3049L1.67594 34.1049L13.9241 47.2951L22.3241 39.4951L10.0759 26.3049ZM12.57 33.068C10.4438 31.7391 7.90552 30.9 5 30.9V48.9C4.71326 48.9 4.34754 48.8582 3.94777 48.7393C3.55207 48.6217 3.24074 48.4637 3.03001 48.332L12.57 33.068ZM5 30.9C-2.55312 30.9 -9 37.0128 -9 44.9H9C9 47.1872 7.15312 48.9 5 48.9V30.9ZM-9 44.9C-9 52.6706 -2.77056 58.9 5 58.9V40.9C7.17056 40.9 9 42.7294 9 44.9H-9ZM5 58.9C12.7706 58.9 19 52.6706 19 44.9H1C1 42.7294 2.82944 40.9 5 40.9V58.9ZM19 44.9C19 42.0044 18.1084 39.4723 16.832 37.43L1.56802 46.97C1.29156 46.5277 1 45.7956 1 44.9H19ZM15.3634 48.7584L23.6634 40.9584L11.3366 27.8416L3.03665 35.6416L15.3634 48.7584ZM11.5454 41.1485C14.8422 44.0575 19.2446 45.8 23.8 45.8V27.8C23.8143 27.8 23.7547 27.8003 23.6493 27.7599C23.5428 27.719 23.4743 27.6689 23.4546 27.6515L11.5454 41.1485ZM23.8 45.8C27.258 45.8 30.6592 44.8398 33.5668 42.9706L23.8332 27.8294C23.8887 27.7937 23.9176 27.7866 23.9102 27.7887C23.9036 27.7907 23.8671 27.8 23.8 27.8V45.8ZM20.7081 39.5387L29.4081 56.3387L45.392 48.0613L36.692 31.2613L20.7081 39.5387ZM30.2 46.8C28.6113 48.9182 27.4 51.773 27.4 55.1H45.4C45.4 56.227 44.9887 57.0818 44.6 57.6L30.2 46.8ZM27.4 55.1C27.4 62.6531 33.5128 69.1 41.4 69.1V51.1C43.6872 51.1 45.4 52.9469 45.4 55.1H27.4ZM41.4 69.1C49.1706 69.1 55.4 62.8706 55.4 55.1H37.4C37.4 52.9294 39.2294 51.1 41.4 51.1V69.1ZM55.4 55.1C55.4 47.3294 49.1706 41.1 41.4 41.1V59.1C39.2294 59.1 37.4 57.2706 37.4 55.1H55.4ZM41.4 41.1C38.4355 41.1 36.146 42.1147 34.8751 42.7502L42.9249 58.8498C43.254 58.6853 42.5645 59.1 41.4 59.1V41.1ZM46.8912 46.66L38.2912 30.06L22.3088 38.34L30.9088 54.94L46.8912 46.66ZM36.4796 40.7431C39.9523 37.4633 42.3 32.6462 42.3 27.3H24.3C24.3 27.3123 24.2972 27.3657 24.2579 27.4535C24.215 27.5496 24.1563 27.623 24.1204 27.6569L36.4796 40.7431ZM42.3 27.3C42.3 23.0873 40.9272 19.1734 38.4492 15.9329L24.1508 26.8671C24.2342 26.9762 24.2609 27.0432 24.2712 27.0731C24.2808 27.1015 24.3 27.1665 24.3 27.3H42.3ZM37.4337 27.9862L50.5337 15.7862L38.2663 2.61382L25.1663 14.8138L37.4337 27.9862ZM40.7448 17.4243C41.3379 17.6879 43.9764 19 47.2 19V1C47.9142 1 48.4057 1.14574 48.539 1.189C48.6027 1.20965 48.6071 1.21457 48.5177 1.1776C48.4169 1.13586 48.2983 1.08373 48.0552 0.975696L40.7448 17.4243ZM47.2 19C54.7531 19 61.2 12.8872 61.2 5H43.2C43.2 2.71281 45.0469 1 47.2 1V19ZM61.2 5C61.2 -2.77056 54.9706 -9 47.2 -9V9C45.0294 9 43.2 7.17056 43.2 5H61.2ZM5.2 11.5C8.37439 11.5 11.2 14.0355 11.2 17.5H-6.8C-6.8 24.3645 -1.17439 29.5 5.2 29.5V11.5ZM11.2 17.5C11.2 20.7706 8.47056 23.5 5.2 23.5V5.5C-1.47056 5.5 -6.8 10.8294 -6.8 17.5H11.2ZM5.2 23.5C1.92944 23.5 -0.8 20.7706 -0.8 17.5H17.2C17.2 10.8294 11.8706 5.5 5.2 5.5V23.5ZM-0.8 17.5C-0.8 14.0355 2.02561 11.5 5.2 11.5V29.5C11.5744 29.5 17.2 24.3645 17.2 17.5H-0.8ZM35.5 55C35.5 51.8256 38.0355 49 41.5 49V67C48.3645 67 53.5 61.3744 53.5 55H35.5ZM41.5 49C44.7706 49 47.5 51.7294 47.5 55H29.5C29.5 61.6706 34.8294 67 41.5 67V49ZM47.5 55C47.5 58.2706 44.7706 61 41.5 61V43C34.8294 43 29.5 48.3294 29.5 55H47.5ZM41.5 61C38.0355 61 35.5 58.1744 35.5 55H53.5C53.5 48.6256 48.3645 43 41.5 43V61ZM5.2 38.8C8.37439 38.8 11.2 41.3355 11.2 44.8H-6.8C-6.8 51.6645 -1.17439 56.8 5.2 56.8V38.8ZM11.2 44.8C11.2 48.0706 8.47056 50.8 5.2 50.8V32.8C-1.47056 32.8 -6.8 38.1294 -6.8 44.8H11.2ZM5.2 50.8C1.92944 50.8 -0.8 48.0706 -0.8 44.8H17.2C17.2 38.1294 11.8706 32.8 5.2 32.8V50.8ZM-0.8 44.8C-0.8 41.3355 2.02561 38.8 5.2 38.8V56.8C11.5744 56.8 17.2 51.6645 17.2 44.8H-0.8ZM23.9 25.7C24.3905 25.7 24.8611 25.9167 25.1732 26.2735L11.6268 38.1265C14.7389 41.6833 19.2095 43.7 23.9 43.7V25.7ZM24.9951 26.0759C25.1104 26.2 25.2178 26.364 25.2937 26.5579C25.3693 26.7511 25.4 26.9393 25.4 27.1H7.4C7.4 31.2562 8.94855 35.248 11.8049 38.3241L24.9951 26.0759ZM25.4 27.1C25.4 27.9486 24.6922 28.6 23.9 28.6V10.6C14.9078 10.6 7.4 17.8514 7.4 27.1H25.4ZM23.9 28.6C23.7102 28.6 23.5278 28.564 23.3475 28.4885C23.1624 28.411 22.9369 28.2727 22.7205 28.0409L35.8795 15.7591C32.6611 12.3109 28.219 10.6 23.9 10.6V28.6ZM22.936 28.264C22.4948 27.8227 22.4 27.3608 22.4 27.1H40.4C40.4 23.0392 38.9052 18.7773 35.664 15.536L22.936 28.264ZM22.4026 27.3142C22.3793 26.3357 23.172 25.7 23.9 25.7V43.7C33.028 43.7 40.6208 36.2643 40.3975 26.8858L22.4026 27.3142ZM47.2 -1C50.3744 -1 53.2 1.53551 53.2 5H35.2C35.2 11.8645 40.8256 17 47.2 17V-1ZM53.2 5C53.2 8.27056 50.4706 11 47.2 11V-7C40.5294 -7 35.2 -1.67056 35.2 5H53.2ZM47.2 11C43.9294 11 41.2 8.27056 41.2 5H59.2C59.2 -1.67056 53.8706 -7 47.2 -7V11ZM41.2 5C41.2 1.72944 43.9294 -1 47.2 -1V17C53.8706 17 59.2 11.6706 59.2 5H41.2Z" fill="black" mask="url(#path-1-inside-1_284_5031)"/>
</svg>
