<svg width="51" height="44" viewBox="0 0 51 44" fill="none" xmlns="http://www.w3.org/2000/svg">
<path d="M43.8094 8.25161C43.8094 7.52212 43.4797 6.82251 42.8929 6.30669C42.306 5.79086 41.5101 5.50107 40.6802 5.50107C39.8502 5.50107 39.0543 5.79086 38.4674 6.30669C37.8806 6.82251 37.5509 7.52212 37.5509 8.25161C37.5509 8.9811 37.8806 9.68071 38.4674 10.1965C39.0543 10.7124 39.8502 11.0021 40.6802 11.0021C41.5101 11.0021 42.306 10.7124 42.8929 10.1965C43.4797 9.68071 43.8094 8.9811 43.8094 8.25161ZM31.2924 8.25161C31.2924 6.06315 32.2815 3.96432 34.042 2.41684C35.8026 0.869364 38.1904 0 40.6802 0C43.1699 0 45.5577 0.869364 47.3183 2.41684C49.0788 3.96432 50.0679 6.06315 50.0679 8.25161C50.0679 10.4401 49.0788 12.5389 47.3183 14.0864C45.5577 15.6339 43.1699 16.5032 40.6802 16.5032C38.1904 16.5032 35.8026 15.6339 34.042 14.0864C32.2815 12.5389 31.2924 10.4401 31.2924 8.25161ZM14.0816 5.50107C11.4902 5.50107 9.38773 7.34909 9.38773 9.62688V23.7664C9.38773 25.2534 8.69343 26.5083 7.89156 27.4194C6.86478 28.5884 6.25849 30.041 6.25849 31.6312C6.25849 35.4304 9.75933 38.5075 14.0816 38.5075C18.4039 38.5075 21.9047 35.4304 21.9047 31.6312C21.9047 30.041 21.2984 28.5884 20.2716 27.428C19.4698 26.5169 18.7755 25.262 18.7755 23.775V9.62688C18.7755 7.34909 16.673 5.50107 14.0816 5.50107ZM3.12924 9.62688C3.12924 4.31491 8.02846 0 14.0816 0C20.1347 0 25.0339 4.30631 25.0339 9.62688V23.7578C25.0339 23.7664 25.0437 23.7836 25.0535 23.8093C25.0731 23.8609 25.1317 23.9469 25.2197 24.05C27.068 26.1473 28.1632 28.7775 28.1632 31.6226C28.1632 38.4559 21.8558 44 14.0816 44C6.30738 44 0 38.4645 0 31.6312C0 28.7775 1.09524 26.1473 2.94344 24.0586C3.03145 23.9555 3.09013 23.8695 3.10968 23.8179C3.11946 23.7921 3.12924 23.775 3.12924 23.7664V9.62688ZM18.7755 31.6312C18.7755 33.909 16.673 35.757 14.0816 35.757C11.4902 35.757 9.38773 33.909 9.38773 31.6312C9.38773 29.8347 10.6981 28.3047 12.517 27.7374V23.3796C12.517 22.6232 13.2211 22.0043 14.0816 22.0043C14.9421 22.0043 15.6462 22.6232 15.6462 23.3796V27.7374C17.4651 28.3047 18.7755 29.8347 18.7755 31.6312Z" fill="#03151E"/>
</svg>
