<svg width="50" height="44" viewBox="0 0 50 44" fill="none" xmlns="http://www.w3.org/2000/svg">
<path d="M17.5 43.89C12.4167 43.3767 8.22917 41.4517 4.9375 38.115C1.64583 34.7783 0 30.7267 0 25.96C0 22.2933 1.65667 18.3062 4.97 13.9986C8.28333 9.691 13.2933 5.0248 20 0C26.7083 5.02333 31.7192 9.68953 35.0325 13.9986C38.3458 18.3077 40.0017 22.2948 40 25.96V26.4H35V25.96C35 23.2833 33.7392 20.2583 31.2175 16.885C28.6958 13.5117 24.9567 9.82667 20 5.83C15.0417 9.82667 11.3025 13.5117 8.7825 16.885C6.2625 20.2583 5.00167 23.2833 5 25.96C5 29.5167 6.16667 32.5233 8.5 34.98C10.8333 37.4367 13.8333 38.9217 17.5 39.435V43.89ZM22.5 44V30.8H31.25C32.25 30.8 33.125 31.13 33.875 31.79C34.625 32.45 35 33.22 35 34.1V36.3C35 37.18 34.625 37.95 33.875 38.61C33.125 39.27 32.25 39.6 31.25 39.6H26.25V44H22.5ZM37.5 44V30.8H41.25V35.2H46.25V30.8H50V44H46.25V38.5H41.25V44H37.5ZM26.25 36.3H31.25V34.1H26.25V36.3Z" fill="#03151E"/>
</svg>
